<?xml version="1.0" encoding="UTF-8" standalone="no"?>
<!DOCTYPE svg PUBLIC "-//W3C//DTD SVG 1.1//EN"
 "http://www.w3.org/Graphics/SVG/1.1/DTD/svg11.dtd">
<!-- Generated by graphviz version 2.43.0 (0)
 -->
<!-- Title: G Pages: 1 -->
<svg width="1047pt" height="516pt"
 viewBox="0.00 0.00 785.50 387.00" xmlns="http://www.w3.org/2000/svg" xmlns:xlink="http://www.w3.org/1999/xlink">
<g id="graph0" class="graph" transform="scale(0.75 0.75) rotate(0) translate(4 383)">
<title>G</title>
<polygon fill="white" stroke="transparent" points="-4,4 -4,-383 781.5,-383 781.5,4 -4,4"/>
<!-- 139707573875088 -->
<g id="node1" class="node">
<title>139707573875088</title>
<polygon fill="none" stroke="black" points="0,-332.5 0,-378.5 375,-378.5 375,-332.5 0,-332.5"/>
<text text-anchor="middle" x="79" y="-351.8" font-family="Times,serif" font-size="14.00">input_1: InputLayer</text>
<polyline fill="none" stroke="black" points="158,-332.5 158,-378.5 "/>
<text text-anchor="middle" x="192" y="-363.3" font-family="Times,serif" font-size="14.00">input:</text>
<polyline fill="none" stroke="black" points="158,-355.5 226,-355.5 "/>
<text text-anchor="middle" x="192" y="-340.3" font-family="Times,serif" font-size="14.00">output:</text>
<polyline fill="none" stroke="black" points="226,-332.5 226,-378.5 "/>
<text text-anchor="middle" x="300.5" y="-363.3" font-family="Times,serif" font-size="14.00">[(None, None, 13)]</text>
<polyline fill="none" stroke="black" points="226,-355.5 375,-355.5 "/>
<text text-anchor="middle" x="300.5" y="-340.3" font-family="Times,serif" font-size="14.00">[(None, None, 13)]</text>
</g>
<!-- 139704493090560 -->
<g id="node3" class="node">
<title>139704493090560</title>
<polygon fill="none" stroke="black" points="66,-249.5 66,-295.5 371,-295.5 371,-249.5 66,-249.5"/>
<text text-anchor="middle" x="115.5" y="-268.8" font-family="Times,serif" font-size="14.00">lstm: LSTM</text>
<polyline fill="none" stroke="black" points="165,-249.5 165,-295.5 "/>
<text text-anchor="middle" x="199" y="-280.3" font-family="Times,serif" font-size="14.00">input:</text>
<polyline fill="none" stroke="black" points="165,-272.5 233,-272.5 "/>
<text text-anchor="middle" x="199" y="-257.3" font-family="Times,serif" font-size="14.00">output:</text>
<polyline fill="none" stroke="black" points="233,-249.5 233,-295.5 "/>
<text text-anchor="middle" x="302" y="-280.3" font-family="Times,serif" font-size="14.00">(None, None, 13)</text>
<polyline fill="none" stroke="black" points="233,-272.5 371,-272.5 "/>
<text text-anchor="middle" x="302" y="-257.3" font-family="Times,serif" font-size="14.00">(None, 32)</text>
</g>
<!-- 139707573875088&#45;&gt;139704493090560 -->
<g id="edge1" class="edge">
<title>139707573875088&#45;&gt;139704493090560</title>
<path fill="none" stroke="black" d="M195.97,-332.37C199.18,-323.97 202.91,-314.24 206.39,-305.14"/>
<polygon fill="black" stroke="black" points="209.73,-306.2 210.04,-295.61 203.2,-303.7 209.73,-306.2"/>
</g>
<!-- 139704493089984 -->
<g id="node2" class="node">
<title>139704493089984</title>
<polygon fill="none" stroke="black" points="393.5,-332.5 393.5,-378.5 777.5,-378.5 777.5,-332.5 393.5,-332.5"/>
<text text-anchor="middle" x="472.5" y="-351.8" font-family="Times,serif" font-size="14.00">input_2: InputLayer</text>
<polyline fill="none" stroke="black" points="551.5,-332.5 551.5,-378.5 "/>
<text text-anchor="middle" x="585.5" y="-363.3" font-family="Times,serif" font-size="14.00">input:</text>
<polyline fill="none" stroke="black" points="551.5,-355.5 619.5,-355.5 "/>
<text text-anchor="middle" x="585.5" y="-340.3" font-family="Times,serif" font-size="14.00">output:</text>
<polyline fill="none" stroke="black" points="619.5,-332.5 619.5,-378.5 "/>
<text text-anchor="middle" x="698.5" y="-363.3" font-family="Times,serif" font-size="14.00">[(None, None, 360)]</text>
<polyline fill="none" stroke="black" points="619.5,-355.5 777.5,-355.5 "/>
<text text-anchor="middle" x="698.5" y="-340.3" font-family="Times,serif" font-size="14.00">[(None, None, 360)]</text>
</g>
<!-- 139704483969968 -->
<g id="node4" class="node">
<title>139704483969968</title>
<polygon fill="none" stroke="black" points="404.5,-249.5 404.5,-295.5 734.5,-295.5 734.5,-249.5 404.5,-249.5"/>
<text text-anchor="middle" x="462" y="-268.8" font-family="Times,serif" font-size="14.00">lstm_1: LSTM</text>
<polyline fill="none" stroke="black" points="519.5,-249.5 519.5,-295.5 "/>
<text text-anchor="middle" x="553.5" y="-280.3" font-family="Times,serif" font-size="14.00">input:</text>
<polyline fill="none" stroke="black" points="519.5,-272.5 587.5,-272.5 "/>
<text text-anchor="middle" x="553.5" y="-257.3" font-family="Times,serif" font-size="14.00">output:</text>
<polyline fill="none" stroke="black" points="587.5,-249.5 587.5,-295.5 "/>
<text text-anchor="middle" x="661" y="-280.3" font-family="Times,serif" font-size="14.00">(None, None, 360)</text>
<polyline fill="none" stroke="black" points="587.5,-272.5 734.5,-272.5 "/>
<text text-anchor="middle" x="661" y="-257.3" font-family="Times,serif" font-size="14.00">(None, 32)</text>
</g>
<!-- 139704493089984&#45;&gt;139704483969968 -->
<g id="edge2" class="edge">
<title>139704493089984&#45;&gt;139704483969968</title>
<path fill="none" stroke="black" d="M581.13,-332.37C579.49,-324.06 577.59,-314.45 575.81,-305.43"/>
<polygon fill="black" stroke="black" points="579.24,-304.74 573.87,-295.61 572.37,-306.1 579.24,-304.74"/>
</g>
<!-- 139707573878688 -->
<g id="node5" class="node">
<title>139707573878688</title>
<polygon fill="none" stroke="black" points="159,-166.5 159,-212.5 614,-212.5 614,-166.5 159,-166.5"/>
<text text-anchor="middle" x="259.5" y="-185.8" font-family="Times,serif" font-size="14.00">concatenate: Concatenate</text>
<polyline fill="none" stroke="black" points="360,-166.5 360,-212.5 "/>
<text text-anchor="middle" x="394" y="-197.3" font-family="Times,serif" font-size="14.00">input:</text>
<polyline fill="none" stroke="black" points="360,-189.5 428,-189.5 "/>
<text text-anchor="middle" x="394" y="-174.3" font-family="Times,serif" font-size="14.00">output:</text>
<polyline fill="none" stroke="black" points="428,-166.5 428,-212.5 "/>
<text text-anchor="middle" x="521" y="-197.3" font-family="Times,serif" font-size="14.00">[(None, 32), (None, 32)]</text>
<polyline fill="none" stroke="black" points="428,-189.5 614,-189.5 "/>
<text text-anchor="middle" x="521" y="-174.3" font-family="Times,serif" font-size="14.00">(None, 64)</text>
</g>
<!-- 139704493090560&#45;&gt;139707573878688 -->
<g id="edge3" class="edge">
<title>139704493090560&#45;&gt;139707573878688</title>
<path fill="none" stroke="black" d="M264.41,-249.37C285.15,-239.37 309.82,-227.47 331.54,-217"/>
<polygon fill="black" stroke="black" points="333.16,-220.1 340.65,-212.61 330.12,-213.8 333.16,-220.1"/>
</g>
<!-- 139704483969968&#45;&gt;139707573878688 -->
<g id="edge4" class="edge">
<title>139704483969968&#45;&gt;139707573878688</title>
<path fill="none" stroke="black" d="M519.49,-249.37C496.7,-239.28 469.54,-227.26 445.73,-216.72"/>
<polygon fill="black" stroke="black" points="447.01,-213.45 436.45,-212.61 444.17,-219.85 447.01,-213.45"/>
</g>
<!-- 139704280684288 -->
<g id="node6" class="node">
<title>139704280684288</title>
<polygon fill="none" stroke="black" points="250.5,-83.5 250.5,-129.5 522.5,-129.5 522.5,-83.5 250.5,-83.5"/>
<text text-anchor="middle" x="306.5" y="-102.8" font-family="Times,serif" font-size="14.00">dense: Dense</text>
<polyline fill="none" stroke="black" points="362.5,-83.5 362.5,-129.5 "/>
<text text-anchor="middle" x="396.5" y="-114.3" font-family="Times,serif" font-size="14.00">input:</text>
<polyline fill="none" stroke="black" points="362.5,-106.5 430.5,-106.5 "/>
<text text-anchor="middle" x="396.5" y="-91.3" font-family="Times,serif" font-size="14.00">output:</text>
<polyline fill="none" stroke="black" points="430.5,-83.5 430.5,-129.5 "/>
<text text-anchor="middle" x="476.5" y="-114.3" font-family="Times,serif" font-size="14.00">(None, 64)</text>
<polyline fill="none" stroke="black" points="430.5,-106.5 522.5,-106.5 "/>
<text text-anchor="middle" x="476.5" y="-91.3" font-family="Times,serif" font-size="14.00">(None, 64)</text>
</g>
<!-- 139707573878688&#45;&gt;139704280684288 -->
<g id="edge5" class="edge">
<title>139707573878688&#45;&gt;139704280684288</title>
<path fill="none" stroke="black" d="M386.5,-166.37C386.5,-158.15 386.5,-148.66 386.5,-139.73"/>
<polygon fill="black" stroke="black" points="390,-139.61 386.5,-129.61 383,-139.61 390,-139.61"/>
</g>
<!-- 139704280705872 -->
<g id="node7" class="node">
<title>139704280705872</title>
<polygon fill="none" stroke="black" points="242.5,-0.5 242.5,-46.5 530.5,-46.5 530.5,-0.5 242.5,-0.5"/>
<text text-anchor="middle" x="306.5" y="-19.8" font-family="Times,serif" font-size="14.00">dense_1: Dense</text>
<polyline fill="none" stroke="black" points="370.5,-0.5 370.5,-46.5 "/>
<text text-anchor="middle" x="404.5" y="-31.3" font-family="Times,serif" font-size="14.00">input:</text>
<polyline fill="none" stroke="black" points="370.5,-23.5 438.5,-23.5 "/>
<text text-anchor="middle" x="404.5" y="-8.3" font-family="Times,serif" font-size="14.00">output:</text>
<polyline fill="none" stroke="black" points="438.5,-0.5 438.5,-46.5 "/>
<text text-anchor="middle" x="484.5" y="-31.3" font-family="Times,serif" font-size="14.00">(None, 64)</text>
<polyline fill="none" stroke="black" points="438.5,-23.5 530.5,-23.5 "/>
<text text-anchor="middle" x="484.5" y="-8.3" font-family="Times,serif" font-size="14.00">(None, 3)</text>
</g>
<!-- 139704280684288&#45;&gt;139704280705872 -->
<g id="edge6" class="edge">
<title>139704280684288&#45;&gt;139704280705872</title>
<path fill="none" stroke="black" d="M386.5,-83.37C386.5,-75.15 386.5,-65.66 386.5,-56.73"/>
<polygon fill="black" stroke="black" points="390,-56.61 386.5,-46.61 383,-56.61 390,-56.61"/>
</g>
</g>
</svg>
